<svg xmlns="http://www.w3.org/2000/svg" xmlns:xlink="http://www.w3.org/1999/xlink" width="380.379" height="56.873" viewBox="0 0 380.379 56.873">
  <defs>
    <clipPath id="clip-path">
      <rect id="Rectangle_73" data-name="Rectangle 73" width="73.891" height="56.873" fill="none"/>
    </clipPath>
    <clipPath id="clip-path-3">
      <rect id="Rectangle_71" data-name="Rectangle 71" width="53.982" height="13.441" fill="none"/>
    </clipPath>
    <clipPath id="clip-path-4">
      <rect id="Rectangle_74" data-name="Rectangle 74" width="277.34" height="21.791" fill="#504660"/>
    </clipPath>
  </defs>
  <g id="Group_441" data-name="Group 441" transform="translate(-204.951 -54.127)">
    <g id="Group_162" data-name="Group 162" transform="translate(204.951 54.127)">
      <g id="Group_140" data-name="Group 140" clip-path="url(#clip-path)">
        <g id="Group_139" data-name="Group 139" transform="translate(0 0)">
          <g id="Group_138" data-name="Group 138" clip-path="url(#clip-path)">
            <path id="Path_343" data-name="Path 343" d="M8.883,24.375l0-14.165a205.226,205.226,0,0,0,57.377-1v-9A197.034,197.034,0,0,1,5.08.741L0,0V56.873H8.881Z" transform="translate(0 0)" fill="#524946"/>
            <path id="Path_344" data-name="Path 344" d="M13.31,21.674l-3.8.553V40.015h8.883V36.2l0-6.258a196.641,196.641,0,0,1,39.623-1.073V19.958a206.193,206.193,0,0,0-44.7,1.716" transform="translate(8.244 16.858)" fill="#524946"/>
            <g id="Group_137" data-name="Group 137" transform="translate(19.909 16.243)" style="mix-blend-mode: multiply;isolation: isolate">
              <g id="Group_136" data-name="Group 136">
                <g id="Group_135" data-name="Group 135" clip-path="url(#clip-path-3)">
                  <path id="Path_345" data-name="Path 345" d="M51.353,17.228c.019.054.041.112.062.007A1.158,1.158,0,0,0,51.391,17c-.007-.054-.035-.134-.007-.162.084-.091-.019-.146-.03-.215,0-.007-.05-.013-.05-.013-.039.138-.035.043-.078,0-.071-.071-.144-.045-.235.047a.741.741,0,0,1-.14.136c-.034.021-.121.026-.131.007-.088-.159-.213-.312-.131-.523a1.193,1.193,0,0,0,.035-.261c0-.013-.022-.045-.034-.043a.163.163,0,0,0-.078.026c-.011.011,0,.047-.019.056s-.058.03-.077.021A.083.083,0,0,1,50.388,16a1.341,1.341,0,0,1,.086-.217c.045-.084.1-.164.034-.261.142-.146-.037-.162-.1-.232a.107.107,0,0,1-.028-.049,2.068,2.068,0,0,1-.049-.59,1.036,1.036,0,0,0-.035-.385c-.013-.1-.019-.192-.026-.289.161-.078.134-.267.226-.386a.179.179,0,0,0,.015-.179.172.172,0,0,1,.168-.246c.161-.011.344-.052.442.147.009.017.052.015.078.022a1.05,1.05,0,0,0,.026-.11l.013-.011c.091-.011.11.063.142.123.021.039.049.075.073.112a.483.483,0,0,0,.067-.131.736.736,0,0,0,.011-.239c-.028-.194-.034-.194.127-.224.123-.024.161-.118.1-.232l-.133-.37c.091-.1-.006-.187-.05-.235a.639.639,0,0,1-.159-.5.2.2,0,0,0-.209-.192.269.269,0,0,0-.215.157,2.464,2.464,0,0,1-.067.375c-.043.127-.155.23-.123.385.009.043-.11.082-.142.05s-.114-.308-.08-.325c.1-.052.116-.086.058-.2-.05-.1.021-.23.037-.344s-.091-.235-.106-.358c-.022-.22.1-.329.291-.284.032.006.047.056.075.073a.2.2,0,0,0,.093.024c.034-.08.1-.194.073-.241-.058-.088-.011-.189-.062-.256-.078-.1-.007-.183,0-.274,0-.056-.108-.118-.166-.179a.04.04,0,0,1,0-.03c.022-.134-.069-.181-.166-.248-.166-.116-.172-.1-.342,0a.6.6,0,0,0-.228.291c-.069.133-.168.149-.217.022s-.237-.063-.241-.213c-.047.006-.112,0-.136.026s-.032.146-.082.007c-.007-.024-.091-.045-.1-.037-.078.108-.218.093-.314.159a.862.862,0,0,0-.19.2c-.054.069-.131.116-.131.235a3.221,3.221,0,0,1-.06.495,1.783,1.783,0,0,1-.116.358c-.015.043-.022.1-.05.125a.293.293,0,0,1-.161.063c-.114,0-.142-.075-.157-.179a.169.169,0,0,0-.289-.121,1.7,1.7,0,0,0-.2.189c-.05.047-.252.084-.269.041a1.62,1.62,0,0,1-.056-.289c.118-.007.069-.1.082-.159a2.52,2.52,0,0,0,.056-.288c.007-.075.034-.119.108-.1.142.034.153-.125.252-.162.05-.021-.006-.14-.077-.142s-.123,0-.185,0c-.106-.015-.248.069-.3-.1-.1-.015-.213-.067-.274.032-.084.138-.1.071-.144-.019a.187.187,0,0,0-.142-.086c-.23.011-.456.032-.683.062-.043.007-.069.09-.116.11s-.142.011-.2.045c-.177.114-.187.118-.338-.026-.045-.043-.09-.116-.14-.123-.11-.022-.256-.05-.325,0s-.192.084-.237.17c-.054.118-.144.121-.248.121-.058,0-.136,0-.166.032a1.138,1.138,0,0,0-.2.273,1.01,1.01,0,0,0-.069.437.292.292,0,0,1-.17.291c-.08.035-.218-.063-.293-.194l-.017-.026a.162.162,0,0,0-.164-.146.127.127,0,0,1-.08-.063c-.065-.162-.2-.293-.189-.491.006-.138-.091-.217-.215-.166a1.48,1.48,0,0,1-.562.05.328.328,0,0,0-.245.112c-.1.084-.084.187-.127.276-.034.067.058.224.131.258a.058.058,0,0,0,.039-.006c0-.134.142-.052.177-.118.024-.045.032-.11.093-.08.028.013.03.084.039.127s-.011.071,0,.09c.086.123.056.36.31.323.011,0,.028.021.041.03a.115.115,0,0,1-.05.024c-.2.007-.4-.006-.482-.232-.034-.08-.093-.1-.118-.022-.052.183-.172.218-.334.2-.09-.011-.209.045-.241-.1-.015.006-.034.011-.039.021s-.013.039-.021.056c-.015-.015-.037-.026-.043-.043a1.217,1.217,0,0,1-.058-.226c-.011-.108.006-.222-.006-.334a.448.448,0,0,0-.067-.192c-.045-.065-.192,0-.2-.138-.011.009-.032.017-.035.028-.024.134-.129.065-.2.075-.127.015-.28-.043-.347.142-.009.026-.09.047-.134.039a.187.187,0,0,0-.218.144.67.67,0,0,1-.26.342c-.119.077-.151.1-.246-.007-.062-.063-.077-.052-.129.013-.077.1-.121.084-.177-.024-.019-.037-.058-.071-.056-.1,0-.226-.248-.241-.325-.4-.006-.011-.035-.019-.054-.019-.306,0-.635-.067-.846.25-.054.082-.147.078-.166.019-.045-.14-.147-.078-.224-.084s-.232-.017-.256.028c-.069.131-.075.063-.1-.011a.392.392,0,0,0-.045-.077c-.011-.022-.007-.017-.065.015a.339.339,0,0,1-.134.039.739.739,0,0,1-.213,0c-.1-.019-.133.045-.174.108-.026-.065-.06-.131-.146-.1a.6.6,0,0,0-.121.058.361.361,0,0,1-.116.06.506.506,0,0,1-.243,0c-.14-.054-.108.119-.207.134-.127.021-.091-.174-.237-.136-.1.026-.265.071-.327-.106H35.3c-.039.159-.17.112-.269.114s-.065.119-.175.134c-.134.015-.116-.131-.2-.133-.205,0-.407,0-.609,0-.019,0-.035.021-.052.03-.181.121-.215.121-.375.007a.056.056,0,0,0-.054.009c-.026.082-.045.078-.065,0a.058.058,0,0,0-.056-.009c-.161.116-.172.116-.314-.007-.047-.041-.084-.045-.116.019a.14.14,0,0,1-.08.067c-.306.024-.616.041-.926.065-.106.009-.246-.063-.3.106a.14.14,0,0,1-.073-.007c-.024-.112-.106-.1-.187-.1a.4.4,0,0,1-.177-.017.352.352,0,0,0-.345-.026c-.09.047-.155-.073-.211,0-.069.1-.134-.019-.207.011a.608.608,0,0,1-.233.026,3.985,3.985,0,0,1-1.021-.052.37.37,0,0,0-.291.015c-.127.1-.2-.078-.308-.021-.009,0-.024,0-.032,0-.157.106-.332.034-.5.06-.125.022-.286-.09-.368.1l-.039-.013c-.006-.116-.1-.09-.159-.084-.14.021-.276-.1-.424,0-.017.011-.069-.032-.1-.035a.526.526,0,0,0-.263,0,.539.539,0,0,1-.261.041c-.144,0-.286,0-.428,0-.037,0-.1.007-.11.024-.041.144-.157.1-.246.1-.286,0-.569,0-.853,0-.08,0-.174-.045-.226.09a.133.133,0,0,1-.218-.03c-.022-.045-.034-.077-.062-.007-.052.125-.121.134-.26.1a1.177,1.177,0,0,0-.564-.009.908.908,0,0,1-.47.024c-.119-.035-.2.041-.306.019a1.335,1.335,0,0,0-.334,0c-.028,0-.062.037-.08.065-.052.084-.147.077-.166.017-.039-.123-.123-.082-.194-.084a.815.815,0,0,0-.233.026c-.035.011-.069.09-.093.088-.123-.021-.286.093-.366-.093a.255.255,0,0,0-.043.047c-.034.065-.047.041-.063-.009-.006-.015-.032-.021-.049-.032-.019.049-.015.147-.082.015-.034-.065-.131-.088-.177.028-.009.021-.06.026-.091.037-.041-.123-.078-.086-.116,0-.181-.028-.385.118-.549-.088a.132.132,0,0,0-.22.05.089.089,0,0,1-.166.009c-.063-.125-.071-.11-.146,0-.049.075-.035-.065-.093-.082-.1-.03-.041.146-.134.082-.019-.015-.017-.106-.05-.045a.127.127,0,0,1-.133.084c-.245,0-.489-.006-.734,0-.091,0-.1-.073-.149-.106-.108-.077-.075.127-.17.1-.028-.007-.08-.007-.082-.019-.026-.133-.129-.1-.215-.1-.344,0-.689,0-1.036,0-.071,0-.147-.032-.2.086-.022.06-.153.075-.222-.019a.575.575,0,0,0-.049-.045c-.065.179-.22.073-.332.1-.075.017-.151-.017-.192.1-.019.052-.116.06-.162-.032s-.11-.077-.181-.009c-.1.1-.1.093-.246-.006a.136.136,0,0,0-.056-.007c0,.093-.073.1-.129.08-.162-.039-.321.1-.482.006-.177.1-.373.037-.56.06a.338.338,0,0,0-.114.065,1.623,1.623,0,0,1-.267.172.947.947,0,0,1-.291.041c-.114.006-.174.1-.258.149a1.744,1.744,0,0,0-.336.241c-.071.071-.086.09-.133-.015-.03-.065-.062-.007-.052.028.049.2-.17.289-.2.454-.2.063-.308.245-.448.385a1.743,1.743,0,0,0-.265.344,2.042,2.042,0,0,1-.149.566.57.57,0,0,1-.065.131c-.019.035-.035.069-.052.1-.026-.028-.052-.058-.078-.088-.049.084-.136.17-.134.254a2.608,2.608,0,0,1-.071.5,2.911,2.911,0,0,1-.232.784c-.054.108-.2.209-.073.362a.056.056,0,0,1-.006.056c-.159.161-.05.347-.062.525-.007.118.108.11.121.175a.848.848,0,0,1-.013.237c-.007.078-.049.162-.024.226s.077.14.011.22c-.006.007-.017.017-.017.024.028.133.054.263.084.394.2.049.288.217.392.37s.267.282.239.478c-.026.174.108.067.153.114a.186.186,0,0,0,.142.019c.11-.026.142.049.168.123a.932.932,0,0,1,.03.175,1.974,1.974,0,0,0,.007.211c.006.034.049.063.082.086.007.006.045-.028.063-.047a.291.291,0,0,0,.03-.052c.013-.017.03-.03.045-.047.007.019.007.045.021.054l.428.228c0-.019,0-.041,0-.06.013-.043.03-.116.052-.119.062,0,.153-.052.185.043s.116.11.2.146c.063.026.08.149.136.215a.44.44,0,0,0,.157.077c.035.015.1.009.108.032.082.153.146-.084.288-.013.03.013.049.052.069.08.125.172.185-.232.338-.1.047.039.164-.021.179.1.015,0,.035,0,.039-.009a.132.132,0,0,0,.017-.054c.019.007.045.013.052.026a.565.565,0,0,0,.454.237c.106.021.164.05.192.142a.142.142,0,0,0,.175.114.39.39,0,0,1,.213,0c.1.043.252-.021.295.093s.129.078.2.08a.533.533,0,0,0,.232-.032c.112-.049.119-.06.129.054s.17.136.144.261a.09.09,0,0,0,.041-.015c.024-.024.043-.078.067-.078.243,0,.485,0,.73,0,.019,0,.041.034.056.056a.46.46,0,0,1,.032.05A.335.335,0,0,1,17.468,21c.039-.049.078-.05.114.007a.465.465,0,0,0,.043.058c.071-.205.084.041.144.022s.161.006.164.026c.039.2.179.1.271.088.2-.022.4.075.6.013.065-.019.149.093.245.019s.172.06.278.039c.2-.037.2-.021.418.1.034.017.127.006.134-.015.05-.146.067-.058.1.006.006.009.088,0,.091-.017.015-.062.045-.093.1-.08.077.015.192-.06.215.088.084.007.084-.149.2-.093.045.021.1.015.1.082h.052c.006-.065.045-.077.1-.08.439-.007.879-.1,1.322-.062a1.35,1.35,0,0,0,.213,0c.039,0,.1,0,.11-.021.05-.164.183-.08.278-.1.118-.019.267.062.334-.114,0-.007.114,0,.129.026.035.056.022.129.088.007a.257.257,0,0,1,.228-.093c.149.049.288-.058.426-.009s.282-.015.424,0c.035,0,.106-.007.108-.022.028-.114.11-.1.189-.1a.149.149,0,0,0,.161-.093.219.219,0,0,1,.2-.065c.09.03.172-.045.267.024.054.039.2-.067.274-.039.123.043.226-.022.336-.011.133.011.263,0,.4,0,.067,0,.151.022.155-.088a.328.328,0,0,1,.052.024.238.238,0,0,1,.047.041c.032-.155.157-.078.243-.1a.347.347,0,0,0,.133-.043.256.256,0,0,1,.383.011.153.153,0,0,0,.1,0c.009-.1.09-.09.159-.093l.8-.062c.028,0,.075-.017.077-.03.021-.129.116-.09.189-.09.418,0,.835,0,1.249,0,.065,0,.147.032.168-.08.006-.021.086-.026.129-.041s.088-.019.1-.045c.056-.112.168-.2.134-.351a.814.814,0,0,1,0-.243.686.686,0,0,1,.043-.133c-.06-.009-.118-.013-.177-.022s-.146-.006-.162-.039a1.645,1.645,0,0,1-.131-.355c-.019-.078-.015-.168.116-.159.017,0,.05-.026.062-.047a.248.248,0,0,0,0-.091c0-.159-.021-.323.207-.36a.13.13,0,0,0,.052-.192,1.093,1.093,0,0,1-.052-.1c-.062-.093.015-.134.069-.166a.149.149,0,0,1,.209.144c.007.183,0,.366,0,.549,0,.062-.049.071-.084.1a.171.171,0,0,0-.034.25c.069.058.127.1.121.207-.007.084.032.168.032.25a1.628,1.628,0,0,0,.142.545c.045.1.08.2.213.091.157.1.33.043.5.043.129,0,.161.049.149.161,0,.026.019.054.028.08a.337.337,0,0,0,.03-.078c.032-.175.032-.175.187-.077a.061.061,0,0,0,.054,0,.433.433,0,0,1,.36-.138.891.891,0,0,0,.213-.009c.034-.006.054-.06.082-.093.054.166.073,0,.116-.007a.157.157,0,0,1,.136.021c.1.161.235.08.36.065.034-.157.157-.086.245-.1s.2,0,.306-.006c.026,0,.069-.043.069-.069a.336.336,0,0,0-.011-.207c-.078-.127-.028-.256-.039-.385,0-.019.026-.056.047-.058a.081.081,0,0,1,.065.037c.086.1.043.233.08.342.019.056.026.17.142.161.1-.007.209.034.237-.116a.25.25,0,0,1,.037-.078c.039-.067.075-.062.118.015a.465.465,0,0,0,.028.052c.045.056.091.114.138.17.065-.08.153.078.237-.028.045-.062.2.032.237-.119.011-.041.077,0,.1.056s.071.056.114.011c.015-.021,0-.142.067-.024.011.022.035.054.054.056a4.046,4.046,0,0,0,.426,0c.022,0,.063-.049.063-.077.007-.144,0-.286,0-.428a.137.137,0,0,1,.024-.08c.071-.054.217.039.237-.119.015.015.035.03.041.05a.455.455,0,0,1,.058.194.758.758,0,0,0,.131.416c.03.069.045.022.06-.019.024-.069.043-.043.06.009.006.013.032.019.049.03.071-.187.226-.054.338-.09.045.125.063.088.149.011.06-.056.213-.022.325-.013.161.017.233-.144.37-.174.022,0,.047-.065.045-.1a2.205,2.205,0,0,0,0-.726,2.192,2.192,0,0,1-.06-.224c-.019-.069.041-.168-.091-.189-.037-.007-.058-.181-.112-.009-.015-.009-.039-.015-.039-.024-.006-.073,0-.144,0-.215a.562.562,0,0,1,.177-.405A.872.872,0,0,0,38.066,17c.035-.138.123-.168.241-.063.026.022.021.082.065.017a.8.8,0,0,0,.05-.106.457.457,0,0,0-.108-.026c-.1,0-.136-.006-.093-.14a3.646,3.646,0,0,0,.091-.61c0-.021.009-.047,0-.06-.049-.062-.052-.013-.063.024,0,.017-.021.026-.032.037l-.011-.26.344,0c-.045.133.121.147.138.261a1.418,1.418,0,0,1,0,.547,2.057,2.057,0,0,0-.073.771c.011.088-.049.093-.114.1-.084,0-.127-.013-.136-.112-.009-.082-.034-.084-.116,0-.05.054-.05.026-.063-.021,0-.015-.019-.03-.03-.045-.009.019-.032.039-.026.052.03.08.043.207.1.23.091.034.1.106.119.157a1.137,1.137,0,0,1,.065.732c-.017.108-.028.215-.043.321s-.049.232-.058.347c-.015.155.047.215.192.157.1-.041.174-.073.274,0a.178.178,0,0,0,.17-.007c.088-.063.175-.037.263-.043s.168.021.222-.1c.019-.041.146-.071.222.037s.125.082.183-.032a3.034,3.034,0,0,1,.284-.667c.011-.015,0-.052-.007-.08a.413.413,0,0,0-.093.028c-.021.009-.03.041-.041.062-.009-.028-.028-.06-.022-.08s.043-.058.06-.088a.733.733,0,0,0,.112-.222c0-.043-.084-.091-.112-.146s-.205-.09-.069-.22c.017-.019-.015-.091-.022-.14a.63.63,0,0,1-.013-.166c.028-.144.086-.282.1-.426s.088-.3.006-.452a.136.136,0,0,1,0-.118c.086-.1.021-.185-.007-.271-.034-.106.039-.2.019-.3a3.055,3.055,0,0,1-.015-.454c0-.017.015-.034.021-.052l.043.062c.011.015.024.037.037.039.11.021.25-.043.3.121a.829.829,0,0,0,.08-.028c.019-.009-.015-.136.065-.032l.119.877c0,.021.007.043,0,.06a2.742,2.742,0,0,0-.058.9c0,.017.019.032.028.05a.212.212,0,0,1,.034-.047c.026-.024.05-.058.082-.063a.487.487,0,0,1,.144.021c-.015.041-.017.1-.045.123a.251.251,0,0,0-.063.194.727.727,0,0,1-.067.222.108.108,0,0,1-.093.041c-.03,0-.058-.039-.077-.065s0-.045-.007-.06-.043-.045-.062-.045a.084.084,0,0,0-.052.054,3.169,3.169,0,0,0-.047.321.312.312,0,0,0,.021.1.45.45,0,0,0,.082-.062c.071-.067.082-.069.119,0,.024.045.069.112.056.129-.1.127,0,.288-.078.405-.086.142.043.183.1.26.019.024.05.032.077.049a.408.408,0,0,0,.035-.1.507.507,0,0,1,.006-.151.184.184,0,0,1,.106-.1c.071-.017.058.054.075.1.062.187.063.185.289.2.028,0,.054.03.08.032a4.142,4.142,0,0,0,.48.021c.127-.006.181-.09.187-.217a2.371,2.371,0,0,1,.021-.541c.022-.1.022-.144-.043-.2-.043-.037-.065-.106-.007-.119.149-.037.084-.149.08-.224s-.058-.134-.088-.2l-.088.155a.849.849,0,0,1-.056.1c-.009.013-.03.015-.047.021-.006-.021-.021-.039-.017-.056.019-.1.043-.19.065-.286.037-.021.1-.034.11-.063.052-.118.088-.243.131-.368.058.062.119.174.175.17.123-.007.119.088.164.144.021.03.024.08.054.1.183.142.134.392.269.558,0,0,0,.021,0,.028-.06.067-.088.14-.022.217.088.1-.09.155-.034.246l.034.047a.145.145,0,0,0,.026-.05c.017-.054.054-.071.058-.007a.6.6,0,0,0,.08.342c.011.017.091.013.093,0,.045-.1.073-.151.144-.013.037.075.1.058.112-.028.011-.058-.015-.127.091-.065.054.03.138.009.207.019a.092.092,0,0,1,.065.047,1.725,1.725,0,0,1,.026.175c.08-.045.019-.121.041-.177a.142.142,0,0,1,.054-.071c.116-.037.133-.119.134-.23,0-.065.043-.039.056.011a.107.107,0,0,0,.028.049.565.565,0,0,1,.1-.142c.039-.034.106.026.164-.047a.467.467,0,0,0,.134-.386.459.459,0,0,1,0-.151.09.09,0,0,1,.058-.052c.077-.021.2.065.172.116-.1.151.026.256.049.381.019.1.035.192.174.185.019,0,.039.062.058.1.024-.041.065-.078.069-.121.009-.1.106-.224-.062-.3-.062-.03-.009-.271.063-.282s.2-.021.25.028a.2.2,0,0,1,.065.241q-.073.129-.134.263c-.065.144,0,.237.134.316.205.11.385-.063.577-.011.011,0,.034-.043.047-.067a1.345,1.345,0,0,1,.08-.155c.045-.06.091-.114.172-.041a.087.087,0,0,0,.146-.047c.032-.172.146-.336.069-.515-.028-.067-.017-.071.041-.1.026-.009.032-.084.037-.131a.245.245,0,0,0-.019-.084.315.315,0,0,1-.058.08c-.052.037-.075.011-.11-.041-.049-.073-.168-.071-.161-.028.03.185-.213.282-.142.48.028.073-.03.1-.1.1-.2.007-.2,0-.194-.2a1.535,1.535,0,0,1,.045-.2.235.235,0,0,0-.047-.248.392.392,0,0,1-.091-.151.217.217,0,0,1-.007-.1c.112-.024.11-.114.1-.189s.09-.146.009-.245c-.045-.056-.032-.161-.043-.245a1.343,1.343,0,0,0-.082.218c-.021.09-.125.086-.131.067-.047-.131-.273-.088-.248-.3s-.009-.25.077-.392a1.337,1.337,0,0,0,.241-.411c0-.013.022-.022.034-.034.007.019.024.037.022.052-.047.3.19.452.332.648a.086.086,0,0,0,.077-.009c.015-.034,0-.082.022-.112.047-.073.065-.17.164-.194a.676.676,0,0,1-.03-.246.313.313,0,0,0,.032-.194.691.691,0,0,1,.125-.482c.047-.084.134-.185.026-.3-.013-.015.017-.1.049-.121.1-.09.114-.1.118-.129.022-.136.039-.274.067-.407a.153.153,0,0,1,.078-.09c.063-.032.164,0,.175-.116.013.006.032.006.041.015s0,.138.069.024a.8.8,0,0,1,.121-.142c.009-.009.052-.006.054.006.039.106.069.093.131.007s.134-.078.175.006c.065.133.123.267.177.4a.124.124,0,0,1,0,.09c-.03.071-.09.127-.007.213.045.047-.075.127,0,.211a.12.12,0,0,1-.073.19c-.067.021.015.037.032.056.041.054.11.125.1.168-.049.172.062.314.063.469a2.407,2.407,0,0,0,.265.8c.157.073.062.263.172.366s.035.269.056.405c.011.067,0,.189.024.2.127.043.09.138.1.22a.469.469,0,0,0,.063.192c.047.067.041-.007.058-.032s.037-.006.056-.007a.58.58,0,0,0,0,.151,1.776,1.776,0,0,0,.134.325c.022.035.1.05.161.052A2.29,2.29,0,0,0,49,18.342c.093-.007.207.039.241-.106.034.009.08.007.1.03.108.172.267.073.407.075s.106-.127.144-.2c.091-.192.166-.394.248-.594a.42.42,0,0,1,.024-.05.171.171,0,0,1,.034.041.278.278,0,0,1,.026.274.573.573,0,0,0-.013.355c.013.067.11.119.174.17s.116.071.166-.017a2.759,2.759,0,0,1,.336-.273c.037-.017.08.088.106-.013a4.084,4.084,0,0,0,.256-.706.241.241,0,0,1,.054-.106c0-.007.049,0,.05,0" transform="translate(-10.664 -7.944)" fill="#94b627"/>
                  <path id="Path_346" data-name="Path 346" d="M44.828,12.754a.711.711,0,0,0-.19-.058c-.112-.03-.267.082-.334-.1a.361.361,0,0,0-.043.05c-.037.065-.045.034-.062-.013-.021-.065-.037-.056-.06,0-.007.015-.032.022-.049.035-.011-.026-.017-.063-.037-.077-.071-.052-.213.037-.235-.118-.015,0-.037.007-.039.017-.084.174-.228.052-.342.071-.063-.174-.213-.1-.33-.108-.08-.009-.172.021-.243-.007-.136-.05-.1.144-.205.125-.19-.028-.2.114-.226.241-.015.065-.026.133-.045.2,0,.017-.03.026-.047.039-.009-.015-.03-.03-.028-.043.009-.108-.11-.213-.007-.332.028-.03,0-.1-.071-.1s-.147-.045-.17.067c0,.009-.049.022-.052.017-.024-.043-.039-.088-.065-.131-.065-.108-.362-.146-.42-.041-.069.136-.185.276-.125.444a.274.274,0,0,1,0,.211.708.708,0,0,0-.058.226,1.388,1.388,0,0,0,.052.224.468.468,0,0,1,0,.153c0,.011-.022.021-.034.03-.035.026-.006-.218-.1-.017a.213.213,0,0,0,.011.213.134.134,0,0,1-.022.11c-.03.045-.077.112-.114.11-.086,0-.022-.09-.043-.134-.039-.1-.082-.2-.114-.3-.021-.063-.116-.175.069-.151a.062.062,0,0,0,.041-.037c.024-.146.1-.312.05-.431a.407.407,0,0,1,.049-.386c.022-.039.039-.112.019-.138a1.637,1.637,0,0,0-.224-.217c-.006-.007-.043,0-.054.013-.065.077-.161.144-.192.235a4.418,4.418,0,0,0-.129.538c-.039.123-.084-.032-.123,0-.071,0-.125-.017-.134-.1,0-.009-.03-.015-.045-.021l-.007-.007c-.032-.155.032-.377-.252-.372-.024,0-.063-.069-.077-.112-.028-.108-.1-.129-.2-.127a.882.882,0,0,1-.444-.138.064.064,0,0,0-.056.006c-.065.067-.125.138-.189.205a.319.319,0,0,1-.034.037c-.007-.015-.024-.034-.022-.05.011-.168-.077-.375.172-.454l.007-.028c.03-.08.088-.142.039-.248a1.285,1.285,0,0,1-.045-.323c-.006-.032-.049-.065-.082-.084-.006-.006-.045.026-.065.047-.041.047-.037.047-.091-.017-.009-.013-.043-.013-.065-.011-.127.006-.161-.019-.177-.123a.5.5,0,0,1,.149-.435c.149-.144.019-.25.013-.372-.175-.091-.119-.218-.052-.347.015-.028.035-.052.052-.078.007.03.011.058.019.086a.31.31,0,0,1,.019.054c.015-.017.037-.03.043-.049a1.739,1.739,0,0,0,.062-.164c.019-.073.075-.181.047-.217-.108-.136-.013-.235.043-.327.063-.108,0-.149-.067-.192-.043-.028-.118.022-.146-.067S38.738,9,38.7,8.921c-.069-.162-.189-.11-.3-.133-.026,0-.043-.078-.067-.08-.157-.007-.31-.007-.467-.007-.021.138-.164.054-.205.1a.331.331,0,0,1-.243.121c-.116.013-.187.121-.237.232-.007.017-.028.026-.045.041-.006-.021-.006-.045-.021-.056a.169.169,0,0,0-.069-.034.451.451,0,0,1-.372.181c-.026,0-.041.063-.06.1-.028-.032-.058-.1-.078-.093-.144.022-.321-.1-.428.1-.011.022-.093.007-.142.009A.327.327,0,0,1,36,9.289c.041-.065.06-.123-.007-.183-.006-.006-.021,0-.032,0-.084.028-.045.1-.047.151s-.034.127.054.149c-.007.037-.006.091-.03.11a.519.519,0,0,1-.342.071.21.21,0,0,0-.233.2c-.007.06-.026.144,0,.179.086.1.032.149-.026.23a.289.289,0,0,0-.019.224c.026.091.123.09.207.082.037,0,.078-.009.118-.015a2.926,2.926,0,0,1,.358.03c.054.127.159.23.149.381,0,.08,0,.162,0,.243,0,.062-.022.09-.088.093s-.127-.032-.153.05a1.57,1.57,0,0,0-.06.2c0,.013.034.041.056.05a.051.051,0,0,0,.047-.021c.011-.028.007-.062.019-.086a.253.253,0,0,1,.047-.063c.022.024.065.049.065.073.007.162,0,.325.006.489,0,.093.011.187-.136.172-.034,0-.084.056-.1.1-.06.133-.116.116-.189.011-.007-.015-.034-.017-.052-.024-.024.144-.14.078-.218.086s-.121-.062-.091-.14a.659.659,0,0,1,.086-.155c.069-.084.009-.129-.047-.172s-.149.019-.161.088a.946.946,0,0,1-.009.179c-.022.056-.112.1-.108.144.024.194-.091.187-.22.183-.05,0-.1.021-.146.021-.03,0-.088-.006-.09-.017-.034-.157-.2-.147-.291-.241-.116-.123-.159-.09-.177.091-.006.047,0,.114-.03.14a.362.362,0,0,0-.075.422.522.522,0,0,1-.019.3c-.019.08-.026.078-.119,0a.122.122,0,0,0-.054-.015.442.442,0,0,1-.013.149.108.108,0,0,1-.084.054.122.122,0,0,1-.086-.056c-.015-.034.009-.09-.011-.118a.148.148,0,0,0-.11-.062c-.069,0-.073.043-.05.1.039.11.119.235.1.33a.545.545,0,0,0,.073.375c.021.062.069.166.045.187-.108.1.024.168.013.245-.015.1-.045.19-.058.288-.011.065.043.088.082.131a.965.965,0,0,1,.2.295,1.164,1.164,0,0,0,.258.525c.007.006,0,.047-.011.052s-.062.024-.077.013-.021-.06-.041-.077c-.062-.045-.125-.065-.172.024s-.1.149,0,.233c.063.045.077.06.121,0a.115.115,0,0,1,.069-.043.2.2,0,0,1,.23.23c-.009.1-.043.19-.056.288a.08.08,0,0,0,.114.086.452.452,0,0,0,.164-.142c.022-.039-.006-.108-.009-.162,0-.035-.019-.084,0-.106.093-.134-.006-.222-.071-.314-.043-.062-.1-.11-.146-.17a.44.44,0,0,1,.071-.525c.06-.052.05,0,.063.034.037.075.1.056.149.028.015-.007-.006-.082-.015-.123a.363.363,0,0,0-.1-.187.472.472,0,0,1-.131-.37.2.2,0,0,0-.08-.211c-.11-.1-.213-.179-.194-.349a.582.582,0,0,0-.06-.226.122.122,0,0,0-.052.007c-.063.034-.063.035-.063,0,0-.088-.024-.2.129-.174a1.4,1.4,0,0,0,.108-.258c.017-.069.026-.114.106-.106s.138-.017.149.1a.637.637,0,0,0,.093.211c.009.019.032.026.045.039.015-.021.035-.041.037-.06a.609.609,0,0,0-.1-.428c-.039-.054.045-.175.073-.147.09.082.144-.011.215-.017a.394.394,0,0,1,.232.032c.062.049.138.179.116.217-.065.11.043.183.019.278s.011.218-.062.319c-.015.021,0,.1.021.106.153.039.088.161.1.248s-.039.045-.088.028a.11.11,0,0,0-.149.1c-.015.161,0,.325,0,.487,0,.075.062.073.11.063a.187.187,0,0,0,.1-.058.484.484,0,0,0,.054-.1.5.5,0,0,0,.082.1c.009.009.049,0,.052-.007s.03-.063.019-.077c-.134-.175-.022-.3.084-.429.011-.011.039-.026.05-.021a.117.117,0,0,1,.054.054c.015.077.019.157.03.235.183-.093.054.1.123.138s.007.213.172.181c.011,0,.03.047.047.067a.4.4,0,0,1,.026.368c-.028.1-.123.162-.147.258-.028.114-.045.232-.063.347s-.05.125-.159.114c-.063-.006-.08-.039-.1-.091,0-.015-.062-.034-.077-.024a1.583,1.583,0,0,0-.138.136c.049.013.1.045.147.035.142-.028.155.123.254.166.058.024.088.123.127.19l.045.054a.337.337,0,0,1,.021-.08c.019-.032.049-.077.067-.077.08.011.017.05.006.077-.05.127.03.252.013.386a.244.244,0,0,0,.177.215c.05.015.077.129.108.2a.14.14,0,0,1-.093.209c-.1.022-.1.043-.065.136a1.135,1.135,0,0,1,.08.428c0,.131-.084.26-.1.392a.739.739,0,0,0,.067.246c.03-.032.047-.078.084-.093.114-.05.194.011.2.147v.062c0,.08.037.114.114.063.047-.032.077-.019.067.034a1.458,1.458,0,0,0-.052.226c0,.084.043.168.052.256s0,.2,0,.3c0,.017.021.034.03.05a.266.266,0,0,0,.028-.05c.024-.063.039-.131.067-.192a.076.076,0,0,1,.062-.045.078.078,0,0,1,.05.054c.009.08,0,.162.009.243a.077.077,0,0,0,.054.05c.021,0,.062-.032.058-.045-.039-.23.278-.041.269-.23.013.017.035.032.037.05.007.039,0,.084.009.121a.078.078,0,0,0,.062.043.073.073,0,0,0,.05-.056c.015-.164-.022-.351.224-.381a.09.09,0,0,0,.013-.077c-.063-.11-.11-.258-.207-.316-.146-.086-.063-.19-.077-.288,0,0,.065-.034.073-.024.05.052.1.189.108-.022a.161.161,0,0,1,.125-.043c.121.043.25-.007.375.05.058.024.153-.043.215-.022.078.024.116.127.168.187a.491.491,0,0,0,.181.133.127.127,0,0,1,.088.129.4.4,0,0,0,.041.14.061.061,0,0,0,.112-.017.205.205,0,0,0,0-.106c-.028-.174-.065-.344-.093-.517,0-.03.028-.065.043-.1.026.022.052.043.077.067s.034.05.052.071a.2.2,0,0,0,.049.024c.007-.021.022-.039.019-.056-.017-.086-.039-.172-.062-.254-.015-.047-.056-.1-.045-.133s.071-.08.112-.114a.061.061,0,0,1,.054.011c.034.088.118.172.021.276-.009.013,0,.084.022.091s.108.007.11-.006c.015-.06.17-.133,0-.189a.194.194,0,0,1,.011-.091c.09-.009.088-.069.088-.133s0-.1.006-.149c.019.009.049.011.052.026.015.043.032.082.058.013.037-.086.047-.069.069,0,0,.009.05.013.052.009.047-.144.11-.114.189-.024a.391.391,0,0,0,.243.091c.082-.035.194-.03.22-.155a.22.22,0,0,1,.08-.112c.034-.024.08-.022.019-.067a.238.238,0,0,1-.075-.075c-.075-.127-.075-.125-.246-.174-.03-.009-.043-.077-.054-.118-.006-.013.015-.034.024-.05a.315.315,0,0,0,.039.075l.05-.013a.452.452,0,0,1,.052-.232c.037-.05.024-.119-.073-.159-.071-.028-.041-.1.045-.108.035-.006.112.032.069-.071a.6.6,0,0,1-.03-.2c-.011-.146.041-.3-.1-.422a.177.177,0,0,1-.011-.172c.024-.06.039-.1,0-.153-.007-.009.017-.06.034-.067s.069.013.073.03a2.391,2.391,0,0,1,.19.614c0,.086-.015.17.118.088.015-.009.118.065.121.1a8.9,8.9,0,0,1,.127,1.09.872.872,0,0,0,.123.569c.1.147.028.357.177.491a.108.108,0,0,1,0,.116c-.08.078-.017.157.015.207a.336.336,0,0,1,.056.317c-.015.037.011.131.028.133.112.017.088.1.088.162s0,.142,0,.213a2.05,2.05,0,0,0-.241.007c-.026,0-.056.05-.06.078,0,.054-.032.127.045.155.034.011.106,0,.108-.015.021-.1.177-.1.151-.222.2-.021.224-.032.149-.172-.065-.121.08-.181.034-.278a1.422,1.422,0,0,1,.2-.037,1.707,1.707,0,0,1,.276,0,.091.091,0,0,1,.065.071.188.188,0,0,1-.034.1c-.131-.032-.146.084-.185.153s-.019.1.1.1a.319.319,0,0,1,.157.063.3.3,0,0,1,.075.086c0-.045.013-.106-.009-.138a.163.163,0,0,1,.069-.246c.142-.056.138-.155.14-.267a.358.358,0,0,1,.032-.1c.153.08.129-.047.149-.127.037-.136-.088-.147-.157-.179-.088-.041-.073.05-.093.1a.157.157,0,0,1-.106.063c-.058.011-.118.019-.134-.073-.032-.151-.08-.3-.116-.452,0-.022.035-.067.063-.078a.1.1,0,0,0,.041-.151c-.041-.058-.037-.155-.142-.174-.047-.009-.041-.032-.118,0-.021.009-.058-.024-.088-.037.077-.129-.084-.282.045-.411.021-.021.007-.1-.015-.138-.054-.088-.041-.116.065-.136a.094.094,0,0,0,.05-.17.379.379,0,0,0-.355-.133c-.1.021-.185.007-.162-.136.011-.091.015-.2-.134-.168l-.007-.056c.091,0,.067-.071.086-.127a.743.743,0,0,1,.129-.258c.034-.039.125-.03.19-.045.032-.009.1-.03.1-.043-.006-.155.112-.237.194-.336s.049-.211.06-.317c0-.032.034-.062.052-.091.021.026.062.05.065.077.011.112-.034.258.166.241.047.1.133.189.133.284,0,.289-.034.577-.054.866,0,.007-.006.024-.011.026-.149.039-.065.123-.032.189a.589.589,0,0,1,.11.33.241.241,0,0,0,.045.134c.1.174.1.187-.03.37a.763.763,0,0,0-.08.218.528.528,0,0,0,0,.121.2.2,0,0,0,.026.052.35.35,0,0,1,.039-.067c.006-.009.071.052.09.084.077.133.241.179.323.065s.179-.054.267-.058c.019,0,.03.108.062.146.108.112-.024.179-.043.263s-.056.121.034.2c.162.138.136.2.024.439a.786.786,0,0,0-.011.319c0,.007.032.022.047.024a.388.388,0,0,0,.332-.185c.037-.09.067-.181.1-.271.058.075.119.151.175.23s.142.058.149.026c.024-.129.138-.1.209-.127a.175.175,0,0,0,.127-.2c-.006-.146-.03-.3.138-.388a.079.079,0,0,0,.007-.063.359.359,0,0,0-.08-.114c-.112-.1-.168-.2-.073-.353a.894.894,0,0,0,.065-.344c.011-.108.039-.1.134-.067.207.075.245.037.233-.181,0-.009,0-.022,0-.03s-.032-.054-.05-.056-.05.022-.063.041-.028.1-.06.026-.112-.144-.049-.248a.342.342,0,0,0-.015-.366.685.685,0,0,1,.011-.657c.043-.078.067-.138.009-.218s-.024-.127.021-.19a1.438,1.438,0,0,0,.078-.431c0-.054-.009-.1-.08-.1-.134,0-.159-.1-.2-.19a.293.293,0,0,1,0-.106c.032.017.078.022.09.047.032.077.088.1.118.019s.123-.093.082-.22a1.1,1.1,0,0,1,.06-.433c.166-.08.131-.263.2-.392.03-.05.052-.1-.011-.119-.08-.028-.088-.056-.05-.129a.213.213,0,0,0,.011-.164c-.084-.123,0-.189.088-.192.146-.007.134-.127.172-.2.024-.049,0-.121.009-.179s.112-.119.015-.179" transform="translate(9.113 -8.7)" fill="#94b627"/>
                  <path id="Path_347" data-name="Path 347" d="M36.33,16.62a.358.358,0,0,1-.211-.476.511.511,0,0,0,.024-.1c-.133-.056-.123-.224-.233-.293-.021-.017-.05-.039-.073-.034a.085.085,0,0,0-.043.063.546.546,0,0,1-.164.431.849.849,0,0,0-.116.237c-.017.043-.037.112-.015.14.088.11.021.237.05.351.037.136-.11.164-.134.263a.587.587,0,0,0-.058-.06.052.052,0,0,0-.039-.006.5.5,0,0,0-.037.078.447.447,0,0,0-.039-.063c-.082-.084-.052-.187-.06-.288,0-.015-.019-.032-.028-.049-.009.015-.03.028-.03.043a.308.308,0,0,1-.08.246.247.247,0,0,0-.037.2c.013.084.1.035.149.054.034.011.08.039.08.06,0,.09.037.129.127.125.019,0,.06.045.056.05-.06.1.043.222-.054.314a.306.306,0,0,0-.03.049.265.265,0,0,0-.037-.077c-.039-.047-.088-.05-.112.015s.017.14-.078.119c-.026-.006-.035-.1-.045-.153a.512.512,0,0,1,0-.119.517.517,0,0,0,0-.093.622.622,0,0,0-.034-.093c-.013.026-.026.052-.037.078-.052-.039-.134-.069-.153-.121-.058-.147-.058-.049-.1,0s-.088.024-.1-.047c-.017-.134-.062-.162-.172-.084-.067.045-.2-.015-.211.127a.229.229,0,0,1-.1-.007c-.03-.017-.043-.08-.065-.08-.164-.011-.149-.09-.093-.2.013-.026,0-.067-.006-.1a.667.667,0,0,0-.138.021c-.026.009-.019.17-.077.013a1.178,1.178,0,0,1-.056-.2c-.013-.063.015-.125-.082-.17-.041-.017-.028-.161-.039-.248.162-.05.1-.246.207-.325.077-.058.153-.088-.011-.077-.11.009-.129-.054-.172-.125s.007-.1.03-.155a.8.8,0,0,0,.09-.648.487.487,0,0,1-.019-.174c0-.019.034-.049.052-.049a.068.068,0,0,1,.058.047.632.632,0,0,1,.007.119.121.121,0,0,0,.024.052c.011-.013.03-.022.034-.035a1.3,1.3,0,0,0,.041-.463.57.57,0,0,1,.015-.4c.032-.084,0-.183.1-.026.017.028.138.024.189-.006.03-.015.045-.127.022-.162a.43.43,0,0,1-.056-.26c-.007-.146-.007-.146-.172-.159a.139.139,0,0,1-.131-.2c.021-.045.082-.075.091-.118.013-.073.028-.2-.007-.217-.134-.084-.125-.233-.185-.347a.382.382,0,0,1,.039-.4c.021-.028.058-.065.082-.062.172.021.185-.108.22-.217.009-.026.019-.054.03-.082a.231.231,0,0,0,.035.075c.05.062.08.116.194.067s.28-.035.243-.243c0-.013.071-.032.091-.06.045-.058,0-.164-.063-.149-.2.049-.267-.174-.428-.192a1.288,1.288,0,0,1-.149-.344c-.011-.062.05-.144.116-.213.1-.11.295-.108.34-.286a.1.1,0,0,1,.138.056c.007.037.019.106.03.1a.523.523,0,0,0,.17-.028c.054-.019.11-.026.112-.116a1.41,1.41,0,0,1,.058-.286.061.061,0,0,1,.017-.022c.017.007.037.013.041.024a1.125,1.125,0,0,0,.035.142c.019.041.047.1.078.108.1.009.056-.078.073-.129a.863.863,0,0,1,.067-.131s.049.009.049.021c.013.047.047.082.058.017.022-.106-.017-.226.071-.314s.116-.2.258-.187c0-.019,0-.037,0-.058-.1,0-.069-.073-.084-.131-.034-.121-.077-.239-.121-.357-.006-.017-.032-.037-.047-.034-.121.019-.121.021-.172-.034a.107.107,0,0,0-.153-.03c-.047.022-.123-.028-.187-.022a1.318,1.318,0,0,0-.194.054c-.071.021-.155-.028-.22.049-.052.058-.133.09-.183.147s-.08.062-.125-.011-.056-.062-.119-.007a.225.225,0,0,1-.112.065c-.1,0-.222-.011-.25.114-.035.155-.224-.013-.254.142-.009.045-.084.071-.112.116a2.018,2.018,0,0,0-.1.224c-.034-.071-.065-.14-.1-.209a.257.257,0,0,0-.065-.062.358.358,0,0,0-.035.09c-.015.17-.015.17-.168.2a.292.292,0,0,0-.062.035c.017.007.034.022.05.022.123,0,.245,0,.366,0,.1,0,.136.047.116.153a.356.356,0,0,1-.049.1c-.1.159-.123.345-.237.5-.032.047.007.149.015.224a.427.427,0,0,1,.017.142c-.032.133-.086.26-.108.392a2.219,2.219,0,0,0,0,.334c.019,0,.05,0,.054-.009.013-.03.03-.1.056-.028a.306.306,0,0,1-.011.233.5.5,0,0,0-.034.353,1.858,1.858,0,0,1,.056.379c0,.035.028.071.043.106.039.1.084.2.116.3s.039.183.058.276c-.14.019-.086.131-.1.211,0,0-.047.011-.054,0-.019-.028-.019-.133-.06-.015a.267.267,0,0,0,.009.205.221.221,0,0,1-.013.274,1.862,1.862,0,0,0-.06.495.165.165,0,0,0,.026.047c.017-.011.032-.026.049-.035.063-.022.026-.172.129-.121.037.017.034.125.037.192s.03.189-.007.239c-.118.144-.071.286-.056.437a3.6,3.6,0,0,1,0,.426c0,.06.022.1.086.1.138,0,.1.1.1.172a.138.138,0,0,1-.138.133c-.084.007-.175-.056-.157-.142.032-.134-.129-.258-.011-.392.007-.011-.011-.06-.03-.078-.108-.1-.118-.245-.181-.364s0-.118.084-.121c.065-.006.063-.043.058-.1-.007-.134-.3,0-.194-.2.073-.14-.08-.222-.039-.342a.068.068,0,0,0-.009-.056.061.061,0,0,0-.047-.024c-.019,0-.05.011-.05.021-.009.06-.009.119-.015.179a.687.687,0,0,1-.021.084c-.03-.024-.073-.045-.084-.077-.037-.086.021-.207-.1-.263-.114.11.058.19.032.295-.006.021.026.05.039.077.03.06,0,.08-.05.11s-.037.252.006.3c.125.136.121.142.015.336-.019.035.006.091.011.14.118-.08.1.015.1.078s-.03.131-.043.2a.277.277,0,0,0-.013.116c.052.187.118.37.166.558a2.585,2.585,0,0,1,.067.465c0,.047-.1.093-.108.146-.007.071.052.149.052.222a.727.727,0,0,1-.037.325,1.42,1.42,0,0,0-.08.4c-.019.155,0,.166.146.183a.61.61,0,0,1,.172.043c.084.035.118,0,.106-.077a6.892,6.892,0,0,1,.063-.9c0-.026,0-.071.021-.08a.18.18,0,0,1,.112-.019c.019,0,.047.045.045.062-.028.123-.065.245-.091.368-.011.047-.037.114-.015.138a.38.38,0,0,1,.05.347c-.011.067.007.121.1.116a.22.22,0,0,1,.118.011c.123.086.14-.021.149-.09a3.333,3.333,0,0,0,0-.334c0-.06.009-.119.017-.177.041.047.073.118.125.136.093.035.1.1.116.181a.409.409,0,0,0,.065.131.073.073,0,0,0,.056.013c.015,0,.041-.022.043-.034,0-.091,0-.183.006-.274,0-.035.015-.1.037-.1.063-.022.065.045.1.078s.1.073.136.142c.013.034.077.047.119.069.011-.034.022-.069.037-.1.028-.063.06-.125.088-.187.047.045.093.088.138.134s.058.093.091.093c.155.011.168.106.172.232,0,.146.013.151.155.14.179-.013-.022-.1.026-.14.015-.015,0-.06,0-.09s.022-.06.039-.065a.083.083,0,0,1,.073.034c.022.03.019.125.067.015.022-.054.043-.108.062-.164.028-.084.028-.084.123-.007a.117.117,0,0,0,.052.019.621.621,0,0,1,.075-.159.159.159,0,0,1,.123-.045c.069.013.06.069.024.114-.06.063-.026.118.028.147.028.015.08-.015.121-.024l0,0c0,.05.013.114-.013.147-.069.084-.034.131.022.205a.511.511,0,0,0,.215.164c.065.03.1.043.11-.035.013-.138.006-.274.007-.411,0-.211-.071-.439.034-.627a.234.234,0,0,0-.045-.291c-.183-.232-.175-.282.082-.37.03-.009.067,0,.09-.009s.047-.05.039-.067a.571.571,0,0,0-.248-.353" transform="translate(8.315 -8.173)" fill="#94b627"/>
                  <path id="Path_348" data-name="Path 348" d="M30.517,14.97a.163.163,0,0,1-.009-.161c.054-.192.11-.42-.062-.56-.1-.082-.088-.187-.149-.269-.037-.049-.011-.14.1-.131s.166-.006.1-.151c-.037-.078.054-.213.03-.3a.93.93,0,0,1,.032-.388.874.874,0,0,1,.037-.142,1.137,1.137,0,0,0,0-.121c-.009-.034-.024-.065-.037-.1-.007.03-.03.06-.021.082.056.187-.183.291-.133.476a.144.144,0,0,1-.073.037c-.077,0-.1,0-.058.1a.214.214,0,0,1-.047.248,1.575,1.575,0,0,0-.22.349c-.032.067-.078.168.045.23a.154.154,0,0,1,.05.118c0,.047-.043.09-.054.136-.043.161.032.317.013.484-.009.082.119.175.162.273.056.14.043.028.08-.007a.169.169,0,0,1,.134-.021c.019,0,.035.069.032.1-.011.069-.05.131-.054.2s0,.209.034.222c.108.039.1-.1.138-.149a.243.243,0,0,0,.011-.327c-.045-.062-.045-.151-.082-.218" transform="translate(6.076 -5.281)" fill="#94b627"/>
                  <path id="Path_349" data-name="Path 349" d="M37.448,14.733a.708.708,0,0,0-.063-.345.353.353,0,0,1-.026-.082c-.021.03-.037.058-.056.088l-.077-.088c-.041.035-.026.125-.118.108-.065-.011-.146.026-.157-.088a.3.3,0,0,0-.058-.1.416.416,0,0,0-.062-.049.377.377,0,0,0-.054.084c-.011.028,0,.062-.006.09a.19.19,0,0,1-.024.052c-.011-.013-.034-.026-.034-.039,0-.065-.1-.1-.039-.189s-.035-.067-.065-.063a.149.149,0,0,0-.142.161,2.647,2.647,0,0,1,0,.273c0,.019-.037.037-.062.047s-.037-.013-.049-.026a.5.5,0,0,1-.035-.078l-.045.082c.024.08.045.164.073.245s.065.131.1.2a1.713,1.713,0,0,1,.086-.153c.019-.028.049-.071.075-.071.1.006.1-.06.112-.134,0-.017.058-.028.088-.043a.411.411,0,0,0,.041.138c.015.021.1.006.1.015.007.054.019.1-.054.149s-.077.069,0,.112c.114.067.121.063.129-.062a.746.746,0,0,1,0-.091.358.358,0,0,1,.03-.078l.035.078c.03.071.043.183.093.2.084.032.133-.056.155-.14,0-.011.032-.022.05-.026.054-.011.146,0,.166-.034.063-.1-.1-.073-.1-.138" transform="translate(11.54 -4.015)" fill="#94b627"/>
                  <path id="Path_350" data-name="Path 350" d="M37.329,14.252c-.026-.093.03-.2.047-.308,0-.129,0-.237-.177-.246-.037,0-.149-.017-.146-.119,0-.006-.08-.024-.1-.011a.9.9,0,0,0-.091.487,1.036,1.036,0,0,1,.2.663.378.378,0,0,0,.063.19c.007.019.049.024.077.034a.191.191,0,0,0,0-.065.458.458,0,0,1,.035-.37c.037-.08.118-.134.088-.254" transform="translate(12.045 -4.485)" fill="#94b627"/>
                  <path id="Path_351" data-name="Path 351" d="M33.924,13.22a.212.212,0,0,0-.024.05c-.015-.021-.026-.041-.041-.06-.037-.058-.077-.056-.114-.006a.517.517,0,0,0-.034.08c-.024.056-.05.108-.073.164a1.556,1.556,0,0,1-.131-.254c-.011-.035.047-.09.045-.133s-.05-.063-.1-.121c-.035.063-.073.1-.077.133a1.474,1.474,0,0,0,.146.564.333.333,0,0,1,.007.254A.6.6,0,0,0,33.5,14c0,.017.013.035.019.054.013-.007.034-.009.041-.021.019-.032.026-.082.056-.1.09-.054.168-.086.078-.218-.03-.043.028-.181.084-.232.037-.034.179-.1.213.058,0,.006.047.007.052,0a.505.505,0,0,0,.037-.078c.084-.146.2-.162.338-.045.019.017.045.043.067.043a.2.2,0,0,0,.1-.035.093.093,0,0,0-.021-.077.247.247,0,0,0-.129-.063c-.1-.011-.2,0-.3,0-.069,0-.149.021-.157-.088a.191.191,0,0,0-.054.021" transform="translate(9.026 -5.023)" fill="#94b627"/>
                  <path id="Path_352" data-name="Path 352" d="M29.918,13.519c-.007-.08,0-.162-.006-.243,0-.017-.019-.03-.03-.047a.426.426,0,0,0-.026.05c-.043.1-.082.2-.123.295l-.021.052a.34.34,0,0,0-.043-.056c-.06-.045-.022-.187-.14-.155-.032.007-.039.118-.039.125v.121c0,.151,0,.155.162.166.071,0,.118,0,.157.091.052.114.11.106.162-.009.035-.08.112-.172-.013-.258a.222.222,0,0,1-.041-.134" transform="translate(5.658 -4.773)" fill="#94b627"/>
                  <path id="Path_353" data-name="Path 353" d="M33.56,12.415c-.14.021-.17-.054-.159-.174,0-.015-.026-.034-.039-.05-.007.067-.015.136-.019.205s.047.063.1.084a.174.174,0,0,1,.073.3c-.05.045-.058.073-.022.118a.168.168,0,0,1,0,.194.56.56,0,0,0-.03.2.257.257,0,0,0,.022.084c.028-.026.078-.047.084-.077.034-.192.06-.388.09-.582l-.015,0c0-.069,0-.142,0-.211s-.022-.1-.086-.091" transform="translate(8.998 -5.674)" fill="#94b627"/>
                  <path id="Path_354" data-name="Path 354" d="M32.673,13.956c-.034-.017-.047-.075-.063-.114-.009-.015-.015-.035-.026-.058-.022.019-.058.032-.065.054a1.361,1.361,0,0,0-.084.278,1.133,1.133,0,0,0,.022.261,1.02,1.02,0,0,1,.093-.179c.035-.045.1-.067.134-.1s.078-.093-.011-.138" transform="translate(8.208 -4.293)" fill="#94b627"/>
                  <path id="Path_355" data-name="Path 355" d="M35.886,13.985c0,.034,0,.067,0,.1s.034.082.019.1c-.049.073-.091.157.006.2.133.06.121-.067.151-.147.015-.032.073-.047.114-.071a1.073,1.073,0,0,0-.155-.175c-.028-.022-.088-.007-.134-.009" transform="translate(11.174 -4.121)" fill="#94b627"/>
                  <path id="Path_356" data-name="Path 356" d="M34.475,12.693c.006-.007.017-.013.017-.022.017-.134.03-.271.049-.426-.019-.09-.037-.2-.06-.317-.024.1-.043.2-.073.291-.054.161.071.3.047.456l.021.019" transform="translate(9.909 -5.902)" fill="#94b627"/>
                  <path id="Path_357" data-name="Path 357" d="M37.312,14.437a.928.928,0,0,0-.187.065c-.011,0-.028.032-.022.045s.022.056.041.06a.412.412,0,0,0,.118,0v0a.851.851,0,0,0,.119,0c.026,0,.073-.024.069-.03a.173.173,0,0,0-.039-.1.129.129,0,0,0-.1-.041" transform="translate(12.257 -3.727)" fill="#94b627"/>
                  <path id="Path_358" data-name="Path 358" d="M35.746,14.309a1.406,1.406,0,0,1-.037.159c-.006.026-.024.062-.047.067-.129.03-.009.082-.009.123,0,.073.062.073.11.062.03-.006.056-.035.09-.062a1.3,1.3,0,0,1-.077-.177,1.738,1.738,0,0,1-.03-.172" transform="translate(10.957 -3.838)" fill="#94b627"/>
                  <path id="Path_359" data-name="Path 359" d="M33.788,12.916c.065,0,.142-.088.159-.2-.022-.009-.049-.039-.078-.037-.067,0-.172-.043-.166.091,0,.062-.028.149.086.149" transform="translate(9.308 -5.26)" fill="#94b627"/>
                  <path id="Path_360" data-name="Path 360" d="M36.8,14.363l.022-.26v-.03c0-.069,0-.14,0-.209,0-.024-.028-.049-.045-.073-.022.03-.063.058-.071.09-.013.067.088.112.026.213-.034.056.039.177.069.269" transform="translate(11.915 -4.286)" fill="#94b627"/>
                  <path id="Path_361" data-name="Path 361" d="M29.819,13.019c-.058-.017-.108-.058-.1.049,0,.058.021.086.084.091.1.009.174-.013.19-.123a.23.23,0,0,0-.022-.086c-.069.035-.118.08-.149.069" transform="translate(5.854 -5.016)" fill="#94b627"/>
                  <path id="Path_362" data-name="Path 362" d="M39.37,13.7c-.015-.019-.049-.049-.058-.043a.163.163,0,0,0-.058.052v.09c-.022.108.09.082.131.129a.077.077,0,0,0,.039-.007.869.869,0,0,0-.015-.142.183.183,0,0,0-.039-.078" transform="translate(14.121 -4.406)" fill="#94b627"/>
                  <path id="Path_363" data-name="Path 363" d="M34.654,10.647a.313.313,0,0,0,.1-.256.06.06,0,0,0-.041-.035c-.019,0-.05,0-.054.011a2.313,2.313,0,0,0-.077.245c0,.007.024.024.039.037l.028,0" transform="translate(10.077 -7.266)" fill="#94b627"/>
                  <path id="Path_364" data-name="Path 364" d="M30.569,10.448a.545.545,0,0,0,.05.118,1.538,1.538,0,0,0,.123-.146.171.171,0,0,0,.009-.088c.084-.011.194.034.189-.121,0-.021.065-.054.106-.063.1-.019.08-.091.062-.138-.026-.071-.1-.062-.149-.03a.363.363,0,0,0-.088.114c-.043.077-.084.155-.123.232a.093.093,0,0,1-.03,0c-.086,0-.172-.006-.149.119" transform="translate(6.59 -7.612)" fill="#94b627"/>
                  <path id="Path_365" data-name="Path 365" d="M32.327,12.184c-.011.026-.034.056-.03.078.019.1.047.207.073.308h.037c.007-.028.011-.054.022-.118l-.069-.189a.607.607,0,0,0-.034-.08" transform="translate(8.092 -5.68)" fill="#94b627"/>
                  <path id="Path_366" data-name="Path 366" d="M33.309,13.134c-.009.011-.03.022-.03.035a.333.333,0,0,0,.11.25.034.034,0,0,0,.03,0c.013-.011.035-.032.035-.039-.037-.077-.077-.153-.119-.228,0-.007-.015-.011-.026-.017" transform="translate(8.941 -4.856)" fill="#94b627"/>
                  <path id="Path_367" data-name="Path 367" d="M34.288,12.565c0,.086.05.106.116.088.032-.009.056-.058.106-.114a.792.792,0,0,0-.136-.063c-.062-.007-.084.032-.086.09" transform="translate(9.818 -5.428)" fill="#94b627"/>
                  <path id="Path_368" data-name="Path 368" d="M34.825,12.072c.007-.021-.034-.058-.049-.086a.782.782,0,0,0-.125.106c-.007.009.03.054.062.118a.628.628,0,0,0,.112-.138" transform="translate(10.132 -5.852)" fill="#94b627"/>
                  <path id="Path_369" data-name="Path 369" d="M34.5,10.225l.032-.078a.471.471,0,0,0,0-.056A.489.489,0,0,0,34.484,10c0-.007-.047,0-.049.007a.606.606,0,0,0,0,.1c0,.007.013.015.019.022.015.034.032.065.049.1" transform="translate(9.943 -7.578)" fill="#94b627"/>
                  <path id="Path_370" data-name="Path 370" d="M30.031,12.743a.2.2,0,0,0-.039-.067.058.058,0,0,0-.052.006.15.15,0,0,0-.022.077c0,.017.026.03.034.047s.034.067.05.1a.487.487,0,0,0,.03-.073c0-.05.007-.071,0-.088" transform="translate(6.028 -5.257)" fill="#94b627"/>
                  <path id="Path_371" data-name="Path 371" d="M32.558,12.674c-.009-.006-.039.009-.045.019a.646.646,0,0,0-.024.125l.041.08.032-.075a.385.385,0,0,0,.049-.1c0-.013-.03-.037-.052-.049" transform="translate(8.258 -5.257)" fill="#94b627"/>
                  <path id="Path_372" data-name="Path 372" d="M32.6,13.619l-.034.028a1.2,1.2,0,0,0,.082.144c.007.009.041.006.056,0s.017-.028.041-.065l-.146-.1" transform="translate(8.325 -4.436)" fill="#94b627"/>
                </g>
              </g>
            </g>
          </g>
        </g>
      </g>
    </g>
    <g id="Group_163" data-name="Group 163" transform="translate(307.99 73.271)">
      <path id="Path_373" data-name="Path 373" d="M0,0V21.791H5.3V12.824H18.03V8.636H5.3V4.181H23.636V0Z" fill="#504660"/>
      <path id="Path_374" data-name="Path 374" d="M9.595,0V21.791H34.068V17.61H14.894V12.824H27.625V8.636H14.894V4.181H33.227V0Z" transform="translate(24.575)" fill="#504660"/>
      <g id="Group_143" data-name="Group 143" transform="translate(0 0)">
        <g id="Group_142" data-name="Group 142" clip-path="url(#clip-path-4)">
          <path id="Path_375" data-name="Path 375" d="M40.279,21.791l-5.36-7.706H24.894v7.706h-5.3V0H37.447c4.968,0,8.219,2.888,8.219,7.133A6.23,6.23,0,0,1,40.7,13.7l5.538,8.095Zm.15-14.808c0-1.656-1.325-2.8-3.583-2.8H24.894V9.9H36.878c2.254,0,3.551-1.115,3.551-2.92" transform="translate(50.187 -0.001)" fill="#504660"/>
          <path id="Path_376" data-name="Path 376" d="M50.348,21.791,35.566,6.229h-.089V21.791h-5.3V0h6.172L51.132,15.595h.118V0h5.3V21.791Z" transform="translate(77.292 0)" fill="#504660"/>
          <path id="Path_377" data-name="Path 377" d="M69.038,11.136a9.689,9.689,0,0,1-3.878,7.888,13.892,13.892,0,0,1-8.583,2.767H41.225V0H55.854c8.1,0,13.184,4.452,13.184,11.136m-6.919,3.672a6.158,6.158,0,0,0,1.353-3.764c0-3.971-3.009-6.862-7.286-6.862H46.524V17.61h9.694a7.662,7.662,0,0,0,5.9-2.8" transform="translate(105.586 -0.001)" fill="#504660"/>
          <path id="Path_378" data-name="Path 378" d="M75.408,21.791l-2.5-4.694H58.945l-2.5,4.694h-5.36L62.677,0h6.535l11.56,21.791ZM65.9,3.971,61.11,12.913h9.576Z" transform="translate(130.85 -0.001)" fill="#504660"/>
          <path id="Path_379" data-name="Path 379" d="M62.019,21.791V0h5.3V17.61h16.77v4.181Z" transform="translate(158.844 0)" fill="#504660"/>
          <path id="Path_380" data-name="Path 380" d="M71,21.791V0H94.64V4.181H76.3V8.64H89.042v4.181H76.3v4.79H95.481v4.181Z" transform="translate(181.857 0)" fill="#504660"/>
        </g>
      </g>
    </g>
  </g>
</svg>
